<svg xmlns="http://www.w3.org/2000/svg" xmlns:xlink="http://www.w3.org/1999/xlink" xmlns:serif="http://www.serif.com/" viewBox="0 0 24 30" version="1.1" xml:space="preserve" style="" x="0px" y="0px" fill-rule="evenodd" clip-rule="evenodd" stroke-linejoin="round" stroke-miterlimit="2"><g><path d="M10.136,15.474l1,1c0.149,0.149 0.354,0.228 0.565,0.219c0.21,-0.01 0.407,-0.108 0.542,-0.27l1.666,-2c0.265,-0.318 0.222,-0.791 -0.096,-1.056c-0.318,-0.265 -0.791,-0.222 -1.056,0.096l-1.141,1.369c0,0 -0.419,-0.419 -0.419,-0.419c-0.293,-0.293 -0.768,-0.293 -1.061,-0c-0.292,0.293 -0.292,0.768 0,1.061Z" fill="white"/><path d="M12,10.014c-2.622,-0 -4.75,2.128 -4.75,4.75c-0,2.621 2.128,4.75 4.75,4.75c2.622,-0 4.75,-2.129 4.75,-4.75c-0,-2.622 -2.128,-4.75 -4.75,-4.75Zm-0,1.5c1.794,-0 3.25,1.456 3.25,3.25c-0,1.794 -1.456,3.25 -3.25,3.25c-1.794,-0 -3.25,-1.456 -3.25,-3.25c-0,-1.794 1.456,-3.25 3.25,-3.25Z" fill="white"/><path d="M22.25,5.764c0,-0.729 -0.29,-1.429 -0.805,-1.945c-0.516,-0.515 -1.216,-0.805 -1.945,-0.805l-15,-0c-0.729,-0 -1.429,0.29 -1.945,0.805c-0.515,0.516 -0.805,1.216 -0.805,1.945c-0,3.458 -0,10.514 -0,13.972c-0,0.729 0.29,1.429 0.805,1.945c0.516,0.515 1.216,0.805 1.945,0.805l15,0c0.729,0 1.429,-0.29 1.945,-0.805c0.515,-0.516 0.805,-1.216 0.805,-1.945l-0,-13.972Zm-1.5,-0l-0,13.972c0,0.332 -0.132,0.65 -0.366,0.884c-0.235,0.234 -0.552,0.366 -0.884,0.366c-0,0 -15,0 -15,0c-0.332,0 -0.649,-0.132 -0.884,-0.366c-0.234,-0.234 -0.366,-0.552 -0.366,-0.884l0,-13.972c-0,-0.332 0.132,-0.65 0.366,-0.884c0.235,-0.234 0.552,-0.366 0.884,-0.366c0,-0 15,-0 15,-0c0.332,-0 0.649,0.132 0.884,0.366c0.234,0.234 0.366,0.552 0.366,0.884Z"/><path d="M2.5,8.986l19,0c0.414,0 0.75,-0.336 0.75,-0.75c-0,-0.414 -0.336,-0.75 -0.75,-0.75l-19,0c-0.414,0 -0.75,0.336 -0.75,0.75c-0,0.414 0.336,0.75 0.75,0.75Z" fill="white"/><path d="M15.75,2.264l-0,3.25c-0,0.414 0.336,0.75 0.75,0.75c0.414,-0 0.75,-0.336 0.75,-0.75l-0,-3.25c-0,-0.414 -0.336,-0.75 -0.75,-0.75c-0.414,-0 -0.75,0.336 -0.75,0.75Z" fill="white"/><path d="M6.75,2.264l-0,3.25c-0,0.414 0.336,0.75 0.75,0.75c0.414,-0 0.75,-0.336 0.75,-0.75l-0,-3.25c-0,-0.414 -0.336,-0.75 -0.75,-0.75c-0.414,-0 -0.75,0.336 -0.75,0.75Z" fill="white"/></g></svg>