<svg xmlns="http://www.w3.org/2000/svg" data-name="Layer 1" viewBox="0 0 64 80" x="0px" y="0px"><circle cx="32" cy="15" r="2" fill="white"/><path d="M26,23c0,.08,0,.15,.02,.23,3.8-.3,8.14-.3,11.96,0,.02-.08,.02-.15,.02-.23,0-2.76-2.69-5-6-5s-6,2.24-6,5Z" fill="white"/><path d="M45.31,24.2c4.52,.84,8.37,2.14,11.09,3.73,.21-1.28-.17-2.58-1.08-3.68-.93-1.13-2.29-1.9-3.83-2.19h-.01s-.05-.02-.08-.02c-.04-.01-.08-.01-.11-.02-.39-.07-.78-.1-1.25-.1-.05,0-.09,0-.14,.01t-.02,0s-.01-.01-.02,0h-.01c-1.92,.07-3.61,.94-4.54,2.27Z" fill="white"/><path d="M32,40.09c.7,0,1.33-.37,1.69-.92,.2-.31,.31-.68,.31-1.08,0-1.1-.9-2-2-2s-2,.9-2,2c0,.4,.11,.77,.31,1.08,.36,.55,.99,.92,1.69,.92Z" fill="white"/><path d="M12.5,20.94s.01-.01,.02,0c.26,.06,.53,.08,.81,.03,.16-.03,.27-.07,.41-.13,0-.01,.02-.01,.04-.01,.34-.13,.63-.37,.85-.68,.31-.43,.43-.96,.34-1.49-.17-.97-1.02-1.66-1.97-1.66-.11,0-.23,0-.34,.02-1.09,.19-1.82,1.23-1.63,2.31,.13,.81,.72,1.4,1.47,1.61Z" fill="white"/><path d="M50.21,20.83h.02c.14,.07,.27,.11,.43,.14,.28,.05,.56,.04,.82-.03,.01-.01,.01,0,.02,0,.75-.21,1.34-.81,1.47-1.61,.02-.11,.03-.23,.03-.34,0-.41-.13-.81-.37-1.15-.31-.44-.77-.72-1.29-.82-.12-.02-.23-.02-.34-.02-.96,0-1.8,.69-1.97,1.66-.09,.53,.03,1.06,.34,1.49,.22,.31,.51,.54,.84,.68Z" fill="white"/><path d="M8.03,27.68c2.77-1.52,6.6-2.75,11.06-3.57-.94-1.28-2.6-2.11-4.48-2.18h-.01s-.02-.01-.03,0c-.05-.01-.1-.01-.15-.01-.47,0-.86,.03-1.25,.1-.04,.01-.07,.02-.11,.02-.02,0-.05,.01-.07,.02-.01-.01-.01,0-.02,0-3.06,.59-5.2,3.05-4.94,5.62Z" fill="white"/><path d="M51.34,37.98c.51-.1,.96-.37,1.27-.79,0-.01,.01-.02,.02-.03,.31-.44,.43-.97,.34-1.49-.17-.98-1.01-1.67-1.97-1.67-.11,0-.22,.01-.34,.03-.52,.09-.98,.38-1.29,.82-.31,.43-.43,.96-.34,1.49,.05,.29,.16,.56,.33,.79,.42,.63,1.19,.98,1.98,.85Z" fill="white"/><path d="M51.34,48.97c1.61-.27,3.02-1.06,3.98-2.22,.92-1.11,1.31-2.43,1.09-3.72-.21-1.22-.95-2.28-2.08-3.02-.06-.05-.13-.09-.19-.13-.96-.57-2.09-.87-3.27-.87-.4,0-.81,.03-1.22,.1-1.61,.28-3.02,1.07-3.98,2.22-.4,.49-.7,1.01-.89,1.56-.25,.7-.32,1.44-.2,2.16,.46,2.72,3.5,4.48,6.76,3.92Z" fill="white"/><path d="M13.13,37.98c.8,.13,1.56-.22,1.98-.85,.17-.23,.28-.5,.33-.79,.09-.53-.03-1.06-.34-1.49-.31-.44-.77-.73-1.3-.82-.11-.02-.22-.03-.33-.03-.96,0-1.81,.69-1.97,1.67-.1,.55,.05,1.1,.37,1.52,.29,.4,.73,.7,1.26,.79Z" fill="white"/><path d="M8.06,43.03c-.22,1.29,.17,2.61,1.09,3.72,.96,1.16,2.37,1.95,3.98,2.22,3.26,.56,6.29-1.2,6.76-3.92,.12-.69,.06-1.39-.17-2.07-.19-.58-.5-1.13-.92-1.65-.96-1.15-2.37-1.94-3.98-2.22-1.84-.31-3.61,.11-4.88,1.03-.98,.7-1.68,1.7-1.88,2.89Z" fill="white"/><path d="M26.61,43.81c-.39,.66-.61,1.4-.61,2.19,0,2.76,2.69,5,6,5s6-2.24,6-5c0-.79-.22-1.53-.61-2.19-.97-1.66-3.02-2.81-5.39-2.81s-4.42,1.15-5.39,2.81Z" fill="white"/><path d="M59,34c0-1.55-1.42-2.87-2.6-3.7-2.72-1.91-7.24-3.46-12.74-4.37-1.55-.27-3.2-.47-4.92-.62-4.24-.41-9.25-.41-13.47-.01-1.55,.13-3.05,.32-4.49,.56-5.47,.86-10.03,2.35-12.84,4.21-1.34,.88-2.94,2.28-2.94,3.93,0,1.51,1.36,3.09,3.85,4.47,.33-.24,.69-.45,1.07-.63-.39-.75-.55-1.62-.39-2.51,.37-2.17,2.43-3.65,4.61-3.27,1.06,.18,1.98,.76,2.59,1.63,.62,.88,.86,1.94,.68,2.99-.07,.36-.17,.7-.32,1.02,1.27,.52,2.39,1.33,3.25,2.36,.57,.68,.99,1.43,1.25,2.2,1.08,.17,2.22,.31,3.38,.41,.77-1.25,1.96-2.26,3.4-2.9-.24-.51-.37-1.08-.37-1.68,0-2.21,1.79-4,4-4s4,1.79,4,4c0,.6-.13,1.17-.37,1.68,1.44,.64,2.63,1.65,3.4,2.9,1.32-.11,2.62-.28,3.87-.48,.26-.75,.68-1.47,1.23-2.13,.86-1.03,1.98-1.84,3.25-2.36-.15-.32-.26-.66-.32-1.02-.18-1.05,.06-2.11,.68-2.99,.61-.87,1.53-1.45,2.59-1.63,2.17-.37,4.24,1.1,4.61,3.27,.04,.23,.06,.46,.06,.68,0,.64-.15,1.26-.44,1.83,.21,.1,.41,.21,.61,.33,.08,.05,.17,.1,.25,.17,2.32-1.36,3.58-2.89,3.58-4.34Z" fill="white"/></svg>