<svg xmlns="http://www.w3.org/2000/svg" data-name="Layer 1" viewBox="0 0 64 80" x="0px" y="0px"><path d="m51.627,38.803c.238-1.233.373-2.502.373-3.803,0-8.414-5.23-15.617-12.603-18.565-.036-4.05-3.339-7.334-7.397-7.334s-7.361,3.285-7.397,7.334c-7.374,2.949-12.603,10.152-12.603,18.565,0,1.301.135,2.57.373,3.803-2.52,1.182-4.273,3.735-4.273,6.697,0,4.08,3.32,7.4,7.4,7.4,1.812,0,3.473-.657,4.761-1.743,3.302,2.406,7.351,3.843,11.739,3.843s8.438-1.438,11.739-3.843c1.288,1.086,2.948,1.743,4.761,1.743,4.08,0,7.4-3.32,7.4-7.4,0-2.962-1.753-5.516-4.273-6.697Zm-30.02,10.868c.814-1.189,1.293-2.624,1.293-4.171,0-4.08-3.32-7.4-7.4-7.4-.409,0-.807.042-1.198.106-.188-1.042-.302-2.11-.302-3.206,0-7.395,4.486-13.757,10.876-16.523.868,3.122,3.729,5.423,7.124,5.423s6.256-2.301,7.124-5.423c6.391,2.766,10.876,9.128,10.876,16.523,0,1.096-.114,2.164-.302,3.206-.391-.064-.789-.106-1.198-.106-4.08,0-7.4,3.32-7.4,7.4,0,1.546.478,2.982,1.293,4.171-2.939,2.088-6.521,3.329-10.393,3.329s-7.453-1.241-10.393-3.329Z" fill="white"/></svg>