<svg xmlns="http://www.w3.org/2000/svg" xmlns:xlink="http://www.w3.org/1999/xlink" version="1.1" x="0px" y="0px" viewBox="0 0 90 112.5" enable-background="new 0 0 90 90" xml:space="preserve"><path d="M27.953,10.523c0.744,0.07,1.459,0.428,1.979,1.059L43.541,28.02c0.24,0.293,0.016,0.631-0.572,0.395  c-2.344-0.92-5.385-2.139-8.963-3.453c-0.715-0.258-0.943-0.426-1.412-0.994l-7.166-8.662c-1.043-1.254-0.871-3.066,0.385-4.107  C26.443,10.676,27.213,10.457,27.953,10.523z" fill="white"/><path d="M29.443,25.041l15.9,6.145c1.5,0.58,2.088,0.875,3.146,1.959l3.641,3.713l15.082,19.703  c1.563,2.043,1.756,5.027,0.219,6.568c-1.629,1.637-3.447,1.375-4.938,0.074L41.641,44.904c-0.631-0.557-1.057-0.822-1.818-1.076  l-6.791-2.271c-1.182-0.4-1.791,0.848-0.646,1.338l7.078,3.016l21.465,18.822c1.057,0.928,2.354,1.459,3.582,1.424  c0.684-0.018,0.781,0.066,1.246,0.557c1.594,1.686,0.969,2.984-0.193,3.656c-1.041,0.598-2.781,0.373-4.369-0.203l-17.547-6.631  C42,62.941,41.193,62.639,39.5,61.588l-13.572-8.037c-1.266-0.75-2.047,0.754-1.016,1.41l13.547,8.59  c1.781,1.109,2.816,1.506,4.469,2.105l15.9,5.734c0.313,0.113,0.656,0.332,0.578,0.926c-0.197,1.506-1.281,1.725-2.693,1.631  l-15.125-0.953c-1.801-0.115-3.457-0.068-5.16-0.762l-14.605-5.334c-1.057-0.432-1.775,0.906-0.719,1.34l14.678,6.209  c2.084,0.842,4.006,0.775,5.697,0.885l13.359,0.834c0.584,0.041,1.027,0.334,0.859,1.15c-0.316,1.588-2.113,2.135-3.52,2.135  l-27.725,0.004c-3.037,0-5.25-0.395-6.869-1.232c-1.621-0.844-2.719-2.125-3.594-4.182l-4.115-9.656  c-0.959-2.268-0.912-4.631-0.912-7.381v-10.59c0-3.482,1.594-6.791,4.418-10.145l7.848-9.313  C23.4,24.379,26.553,23.926,29.443,25.041z" fill="white"/><path d="M53.141,31.375c1.5,0.322,2.521,0.639,4.094,1.316l6.9,2.959c2.943,1.26,4.443,2.271,5.094,3.287  c0.652,1.01,0.662,2.229,0.293,4.363l-1.512,8.809c-0.156,0.904-0.953,1.156-1.525,0.404c-1.557-2.035-4.678-6.109-4.678-6.109  c-1.641-2.139-1.191-2.51-0.484-4.91c0.387-1.303-0.557-1.527-1.041-0.59c-0.994,1.924-2.088,0.74-2.631-0.01  c-2.313-3.203-4.619-6.043-7.479-8.709c-0.447-0.459-0.396-0.754,0.406-0.926C51.463,31.066,52.35,31.207,53.141,31.375z" fill="white"/><path d="M71.021,61.219l9.432,11.391c0.172,0.207,0.209,0.352,0.229,0.551l0.34,3.307c0.082,0.859-0.537,1.391-1.344,1.15  l-3.184-0.938c-0.238-0.07-0.375-0.139-0.488-0.275l-8.453-10.213c-0.309-0.369-0.438-0.672,0.051-0.973  c0.396-0.252,0.75-0.568,1.074-0.914c0.797-0.838,1.438-1.906,1.641-3.072C70.391,60.842,70.666,60.789,71.021,61.219z" fill="white"/></svg>